<svg xmlns="http://www.w3.org/2000/svg" viewBox="0 0 400 200">
  <defs>
    <linearGradient id="cardGrad2" x1="0%" y1="0%" x2="100%" y2="100%">
      <stop offset="0%" stop-color="#ff6b9d"/>
      <stop offset="50%" stop-color="#7b5cff"/>
      <stop offset="100%" stop-color="#00ffc8"/>
    </linearGradient>
    <linearGradient id="spectrumGrad" x1="0%" y1="0%" x2="100%" y2="0%">
      <stop offset="0%" stop-color="#7b5cff"/>
      <stop offset="25%" stop-color="#00d4ff"/>
      <stop offset="50%" stop-color="#00ffc8"/>
      <stop offset="75%" stop-color="#ffeb3b"/>
      <stop offset="100%" stop-color="#ff6b9d"/>
    </linearGradient>
    <linearGradient id="bgGrad2" x1="0%" y1="0%" x2="100%" y2="100%">
      <stop offset="0%" stop-color="#0a0f1a"/>
      <stop offset="100%" stop-color="#0d1321"/>
    </linearGradient>
    <filter id="glow2">
      <feGaussianBlur stdDeviation="2" result="coloredBlur"/>
      <feMerge>
        <feMergeNode in="coloredBlur"/>
        <feMergeNode in="SourceGraphic"/>
      </feMerge>
    </filter>
    <clipPath id="roundedClip2">
      <rect width="400" height="200" rx="12"/>
    </clipPath>
  </defs>
  
  <!-- Background -->
  <rect width="400" height="200" rx="12" fill="url(#bgGrad2)"/>
  
  <!-- Border gradient -->
  <rect x="1" y="1" width="398" height="198" rx="11" fill="none" stroke="url(#cardGrad2)" stroke-width="2"/>
  
  <!-- Corner accents -->
  <path d="M0,30 L0,12 A12,12 0 0,1 12,0 L40,0" fill="none" stroke="#ff6b9d" stroke-width="2" filter="url(#glow2)"/>
  <path d="M400,30 L400,12 A12,12 0 0,0 388,0 L360,0" fill="none" stroke="#ff6b9d" stroke-width="2" filter="url(#glow2)"/>
  <path d="M0,170 L0,188 A12,12 0 0,0 12,200 L40,200" fill="none" stroke="#00ffc8" stroke-width="2" filter="url(#glow2)"/>
  <path d="M400,170 L400,188 A12,12 0 0,1 388,200 L360,200" fill="none" stroke="#00ffc8" stroke-width="2" filter="url(#glow2)"/>
  
  <!-- Grid pattern -->
  <g stroke="#1a2744" stroke-width="0.3" opacity="0.5" clip-path="url(#roundedClip2)">
    <line x1="0" y1="40" x2="400" y2="40"/>
    <line x1="0" y1="80" x2="400" y2="80"/>
    <line x1="0" y1="120" x2="400" y2="120"/>
    <line x1="0" y1="160" x2="400" y2="160"/>
    <line x1="80" y1="0" x2="80" y2="200"/>
    <line x1="160" y1="0" x2="160" y2="200"/>
    <line x1="240" y1="0" x2="240" y2="200"/>
    <line x1="320" y1="0" x2="320" y2="200"/>
  </g>
  
  <!-- Status badge -->
  <g transform="translate(285, 15)">
    <rect x="0" y="0" width="100" height="20" rx="10" fill="#ffeb3b" fill-opacity="0.15" stroke="#ffeb3b" stroke-width="1"/>
    <circle cx="12" cy="10" r="4" fill="#ffeb3b">
      <animate attributeName="opacity" values="0.5;1;0.5" dur="1.5s" repeatCount="indefinite"/>
    </circle>
    <text x="22" y="14" font-family="Arial, sans-serif" font-size="9" fill="#ffeb3b" font-weight="600">IN PROGRESS</text>
  </g>
  
  <!-- Icon - Spectrum/ML -->
  <g transform="translate(25, 25)" filter="url(#glow2)">
    <!-- Spectrum bars -->
    <rect x="0" y="35" width="6" height="15" rx="2" fill="#7b5cff"/>
    <rect x="10" y="25" width="6" height="25" rx="2" fill="#00d4ff"/>
    <rect x="20" y="15" width="6" height="35" rx="2" fill="#00ffc8"/>
    <rect x="30" y="20" width="6" height="30" rx="2" fill="#ffeb3b"/>
    <rect x="40" y="30" width="6" height="20" rx="2" fill="#ff6b9d"/>
    <!-- ML arrow -->
    <path d="M5,5 L45,5" stroke="#8892b0" stroke-width="1.5" stroke-dasharray="3,2"/>
    <polygon points="45,5 40,2 40,8" fill="#8892b0"/>
    <!-- Neural node -->
    <circle cx="55" cy="25" r="8" fill="none" stroke="#ff6b9d" stroke-width="1.5"/>
    <circle cx="55" cy="25" r="3" fill="#ff6b9d"/>
  </g>
  
  <!-- Title -->
  <text x="95" y="45" font-family="'Segoe UI', Arial, sans-serif" font-size="22" font-weight="700" fill="url(#cardGrad2)">FP-Predict</text>
  <text x="95" y="65" font-family="Arial, sans-serif" font-size="11" fill="#8892b0">Spectral Properties ML Prediction</text>
  
  <!-- Description -->
  <text x="25" y="100" font-family="Arial, sans-serif" font-size="10" fill="#a8b2d1">
    <tspan x="25" dy="0">🔬 685 fluorescent proteins dataset with AlphaFold2</tspan>
    <tspan x="25" dy="15">📊 ML prediction of λex, λem, quantum yield</tspan>
    <tspan x="25" dy="15">🎓 Master thesis - Extra Trees R² = 0.87</tspan>
  </text>
  
  <!-- Tech tags -->
  <g transform="translate(25, 160)">
    <rect x="0" y="0" width="70" height="18" rx="9" fill="#7b5cff" fill-opacity="0.2" stroke="#7b5cff" stroke-width="0.5"/>
    <text x="35" y="12" text-anchor="middle" font-family="Arial, sans-serif" font-size="8" fill="#7b5cff">AlphaFold2</text>
    
    <rect x="80" y="0" width="65" height="18" rx="9" fill="#00ffc8" fill-opacity="0.2" stroke="#00ffc8" stroke-width="0.5"/>
    <text x="112" y="12" text-anchor="middle" font-family="Arial, sans-serif" font-size="8" fill="#00ffc8">XGBoost</text>
    
    <rect x="155" y="0" width="65" height="18" rx="9" fill="#ff6b9d" fill-opacity="0.2" stroke="#ff6b9d" stroke-width="0.5"/>
    <text x="187" y="12" text-anchor="middle" font-family="Arial, sans-serif" font-size="8" fill="#ff6b9d">Extra Trees</text>
    
    <rect x="230" y="0" width="55" height="18" rx="9" fill="#00d4ff" fill-opacity="0.2" stroke="#00d4ff" stroke-width="0.5"/>
    <text x="257" y="12" text-anchor="middle" font-family="Arial, sans-serif" font-size="8" fill="#00d4ff">FPbase</text>
    
    <rect x="295" y="0" width="55" height="18" rx="9" fill="#ffeb3b" fill-opacity="0.2" stroke="#ffeb3b" stroke-width="0.5"/>
    <text x="322" y="12" text-anchor="middle" font-family="Arial, sans-serif" font-size="8" fill="#ffeb3b">Pandas</text>
  </g>
</svg>
